<?xml version="1.0" standalone="no"?>
<!DOCTYPE svg PUBLIC "-//W3C//DTD SVG 20010904//EN"
 "http://www.w3.org/TR/2001/REC-SVG-20010904/DTD/svg10.dtd">
<svg version="1.0" xmlns="http://www.w3.org/2000/svg"
 width="1024.000000pt" height="189.000000pt" viewBox="0 0 1024.000000 189.000000"
 preserveAspectRatio="xMidYMid meet">
<metadata>
Created by potrace 1.15, written by Peter Selinger 2001-2017
</metadata>
<g transform="translate(0.000000,189.000000) scale(0.100000,-0.100000)"
fill="#000000" stroke="none">
<path d="M3700 878 l0 -47 -87 -3 -88 -3 95 -5 c52 -3 572 -3 1155 0 l1060 5
-1062 3 c-678 1 -1063 6 -1063 12 0 5 7 7 15 4 21 -8 45 14 45 41 0 28 -19 45
-48 42 -19 -1 -22 -7 -22 -49z"/>
<path d="M5102 558 c-28 -28 -1 -88 33 -74 8 3 15 1 15 -4 0 -6 -148 -11 -392
-12 l-393 -3 375 -5 c206 -3 735 -3 1175 0 l800 5 -777 3 -778 2 0 48 c0 43
-2 48 -23 50 -13 1 -29 -4 -35 -10z"/>
</g>
</svg>
