<?xml version="1.0" standalone="no"?>
<!DOCTYPE svg PUBLIC "-//W3C//DTD SVG 20010904//EN"
 "http://www.w3.org/TR/2001/REC-SVG-20010904/DTD/svg10.dtd">
<svg version="1.0" xmlns="http://www.w3.org/2000/svg"
 width="1024.000000pt" height="189.000000pt" viewBox="0 0 1024.000000 189.000000"
 preserveAspectRatio="xMidYMid meet">
<metadata>
Created by potrace 1.15, written by Peter Selinger 2001-2017
</metadata>
<g transform="translate(0.000000,189.000000) scale(0.100000,-0.100000)"
fill="#000000" stroke="none">
<path d="M920 1552 c0 -16 -7 -37 -15 -48 -16 -22 -20 -64 -5 -64 6 0 10 7 10
15 0 11 11 15 40 15 29 0 40 -4 40 -15 0 -8 5 -15 10 -15 6 0 10 7 10 15 0 8
6 15 14 15 8 0 19 12 24 28 l10 27 1 -27 c1 -18 6 -28 16 -28 10 0 15 10 16
28 l1 27 10 -27 c5 -16 16 -28 24 -28 14 0 10 24 -9 48 -7 8 -5 18 7 30 20 22
20 32 3 32 -8 0 -19 -10 -25 -22 l-11 -23 0 23 c-1 13 -7 22 -16 22 -9 0 -15
-9 -16 -22 l0 -23 -11 23 c-6 12 -17 22 -25 22 -17 0 -17 -9 2 -30 13 -15 13
-21 2 -43 -18 -34 -27 -24 -27 30 l0 43 -40 0 c-37 0 -40 -2 -40 -28z"/>
<path d="M2500 1565 c-11 -13 -8 -14 21 -9 l34 6 -32 -21 c-18 -11 -33 -27
-33 -35 0 -19 23 -37 46 -35 37 4 54 -1 54 -16 0 -8 5 -15 10 -15 6 0 10 7 10
15 0 11 11 15 40 15 29 0 40 -4 40 -15 0 -8 5 -15 11 -15 8 0 10 13 5 38 -3
20 -6 52 -6 70 0 31 -2 32 -40 32 -37 0 -40 -2 -40 -29 0 -16 -9 -39 -20 -52
l-19 -24 -1 41 c0 22 -5 45 -12 52 -17 17 -53 15 -68 -3z"/>
<path d="M5840 878 l0 -48 -87 0 c-47 0 -84 -2 -81 -5 7 -7 3050 -7 3056 0 3
3 -385 5 -861 5 -553 0 -867 4 -867 10 0 5 7 7 15 4 21 -8 45 14 45 41 0 28
-19 45 -48 42 -19 -1 -22 -7 -22 -49 l0 -48 -200 0 c-122 0 -200 4 -200 10 0
5 7 7 15 4 21 -8 45 14 45 41 0 28 -19 45 -48 42 -19 -1 -22 -7 -22 -49 l0
-48 -365 0 c-229 0 -365 4 -365 10 0 5 7 7 15 4 21 -8 45 14 45 41 0 28 -19
45 -48 42 -19 -1 -22 -7 -22 -49z"/>
<path d="M4940 518 l0 -48 -182 0 c-100 0 -179 -2 -176 -5 7 -7 1970 -7 1976
0 3 3 -44 5 -105 5 -122 0 -123 0 -123 66 0 30 -3 34 -25 34 -22 0 -25 -4 -24
-32 2 -31 2 -31 6 -5 7 42 33 35 33 -9 0 -34 -2 -36 -26 -31 -16 3 -28 0 -31
-9 -6 -17 -163 -20 -163 -4 0 5 7 7 15 4 21 -8 45 14 45 41 0 28 -19 45 -48
42 -19 -1 -22 -7 -22 -49 l0 -48 -476 0 -475 0 7 23 c16 53 24 67 38 67 10 0
16 -14 19 -42 l4 -43 1 42 c2 30 7 43 20 46 9 3 -2 5 -25 6 -39 1 -42 -1 -54
-36 l-12 -36 -14 24 c-10 17 -12 18 -8 4 20 -58 25 -55 -74 -55 -52 0 -91 4
-91 10 0 5 7 7 15 4 21 -8 45 14 45 41 0 28 -19 45 -48 42 -19 -1 -22 -7 -22
-49z"/>
</g>
</svg>
